<svg xmlns="http://www.w3.org/2000/svg" version="1.1" xmlns:xlink="http://www.w3.org/1999/xlink" viewBox="0 0 200 200"><rect width="200" height="200" fill="url('#gradient')"></rect><defs><linearGradient id="gradient" gradientTransform="rotate(103 0.5 0.5)"><stop offset="0%" stop-color="#ceaa96"></stop><stop offset="100%" stop-color="#8fa983"></stop></linearGradient></defs><g><g fill="#445272" transform="matrix(3.334901393160847,0,0,3.334901393160847,10.093051160734419,123.71052421711659)" stroke="#c8512e" stroke-width="0.2"><path d="M9.98 0L9.15-2.66L4.45-2.66L3.63 0L-0.03 0L5.19-14.22L8.41-14.22L13.66 0L9.98 0ZM6.80-10.23L5.27-5.30L8.33-5.30L6.80-10.23ZM14.70-14.22L19.20-14.22L22.37-4.33L25.54-14.22L30.05-14.22L30.05 0L26.61 0L26.61-3.32L26.94-10.12L23.51 0L21.24 0L17.79-10.13L18.13-3.32L18.13 0L14.70 0L14.70-14.22ZM43.11-14.22L43.11-11.57L38.84-11.57L38.84 0L35.41 0L35.41-11.57L31.22-11.57L31.22-14.22L43.11-14.22ZM47.98-14.22L47.98-2.64L53.95-2.64L53.95 0L44.55 0L44.55-14.22L47.98-14.22Z"></path></g></g></svg>